<svg version="1.1" id="Layer_1" xmlns="http://www.w3.org/2000/svg" xmlns:xlink="http://www.w3.org/1999/xlink" x="0px" y="0px"
	 width="100%" viewBox="0 0 64 64" enable-background="new 0 0 64 64" xml:space="preserve">
<path fill="#000000" opacity="1.000000" stroke="none" 
	d="
M41.000072,65.000000 
	C27.333387,65.000000 14.166720,65.000000 1.000040,65.000000 
	C1.000027,43.666683 1.000027,22.333368 1.000013,1.000040 
	C22.333315,1.000027 43.666630,1.000027 64.999954,1.000013 
	C64.999969,22.333315 64.999969,43.666630 64.999985,64.999969 
	C57.166698,65.000000 49.333393,65.000000 41.000072,65.000000 
M56.682430,25.181181 
	C55.849220,23.978907 54.728409,22.883986 54.232620,21.555763 
	C52.094242,15.827050 48.130833,13.288340 42.037472,13.976305 
	C40.594864,14.139181 39.118206,14.000437 37.229115,14.000437 
	C40.641296,11.500623 41.466381,7.109334 38.935066,6.040281 
	C35.441071,4.564659 30.158743,4.587905 26.797623,6.273179 
	C23.158392,8.097900 26.048197,11.552947 28.551157,13.874497 
	C15.638313,14.313349 9.080098,19.227335 8.003084,29.008841 
	C6.939461,38.668724 13.229221,48.527599 21.863651,50.734570 
	C22.153727,57.859882 22.802538,58.822033 27.259390,57.912766 
	C28.561804,57.647053 29.926954,56.655704 30.824131,55.617428 
	C34.518764,51.341724 38.909740,49.074352 44.683445,49.990520 
	C49.381107,50.735950 51.824188,47.606533 53.859482,44.218845 
	C54.827820,42.607079 54.651703,40.172634 55.824512,38.843891 
	C59.486874,34.694572 58.212704,30.373075 56.682430,25.181181 
z"/>
<path fill="#C850F2" opacity="1.000000" stroke="none" 
	d="
M56.836517,25.558697 
	C58.212704,30.373075 59.486874,34.694572 55.824512,38.843891 
	C54.651703,40.172634 54.827820,42.607079 53.859482,44.218845 
	C51.824188,47.606533 49.381107,50.735950 44.683445,49.990520 
	C38.909740,49.074352 34.518764,51.341724 30.824131,55.617428 
	C29.926954,56.655704 28.561804,57.647053 27.259390,57.912766 
	C22.802538,58.822033 22.153727,57.859882 21.863651,50.734570 
	C13.229221,48.527599 6.939461,38.668724 8.003084,29.008841 
	C9.080098,19.227335 15.638313,14.313349 28.551157,13.874497 
	C26.048197,11.552947 23.158392,8.097900 26.797623,6.273179 
	C30.158743,4.587905 35.441071,4.564659 38.935066,6.040281 
	C41.466381,7.109334 40.641296,11.500623 37.229115,14.000437 
	C39.118206,14.000437 40.594864,14.139181 42.037472,13.976305 
	C48.130833,13.288340 52.094242,15.827050 54.232620,21.555763 
	C54.728409,22.883986 55.849220,23.978907 56.836517,25.558697 
z"/>
</svg>